Coordinates
version=1
nRows=19
nColumns=24
inDegrees=yes

Units are S.I. units (second, meters, Newtons, ...)
Angles are in degrees.

endheader
time	pelvis_tilt	pelvis_list	pelvis_rotation	pelvis_tx	pelvis_ty	pelvis_tz	hip_flexion_r	hip_adduction_r	hip_rotation_r	knee_angle_r	ankle_angle_r	subtalar_angle_r	mtp_angle_r	hip_flexion_l	hip_adduction_l	hip_rotation_l	knee_angle_l	ankle_angle_l	subtalar_angle_l	mtp_angle_l	lumbar_extension	lumbar_bending	lumbar_rotation
      5.14500000	     11.61403078	      8.05253120	      4.19643972	      0.81448573	      0.75725728	     -0.28976711	      9.29992774	    -11.71510160	     -5.64919931	    -63.27220209	     19.36300810	     -1.07499302	      0.00000000	     -5.40790147	     13.30941051	      5.12113411	    -17.03464161	     24.33364967	     -0.77428115	      0.00000000	    -32.26902934	     -4.27195812	     -4.06716169
      5.15000000	     11.59577233	      8.17527891	      4.52438312	      0.82193570	      0.75778116	     -0.29008272	     10.04506276	    -11.86865517	     -5.83476227	    -62.34813693	     19.95895068	     -0.96566298	      0.00000000	     -6.47780466	     13.27930601	      5.33522334	    -16.22733358	     24.47610305	     -0.39379907	      0.00000000	    -32.25800317	     -4.24008596	     -4.71797989
      5.15500000	     11.63098380	      8.29438164	      4.88920201	      0.82938960	      0.75829250	     -0.29041786	     10.67210858	    -12.02997268	     -6.06989839	    -61.31509425	     20.43882508	     -0.72410272	      0.00000000	     -7.62488531	     13.21632801	      5.56584877	    -15.39008708	     24.62263299	      0.07590281	      0.00000000	    -32.31393982	     -4.18308061	     -5.39584581
      5.16000000	     11.64948592	      8.43536769	      5.24482488	      0.83685083	      0.75868797	     -0.29070307	     11.28642572	    -12.20839326	     -6.28611107	    -60.20519376	     20.86838562	     -0.56669853	      0.00000000	     -8.75104959	     13.15933141	      5.71361328	    -14.55553446	     24.74439916	      0.57058305	      0.00000000	    -32.35979582	     -4.16425539	     -6.07873237
      5.16500000	     11.69895543	      8.58788206	      5.63067470	      0.84431418	      0.75903079	     -0.29100167	     11.80956059	    -12.40018868	     -6.52112223	    -58.99728548	     21.23750404	     -0.36581261	      0.00000000	     -9.91606848	     13.08757653	      5.83286873	    -13.71906249	     24.87718483	      1.14968629	      0.00000000	    -32.45094504	     -4.13921820	     -6.78101993
      5.17000000	     11.74861843	      8.75292690	      6.00551786	      0.85178409	      0.75927992	     -0.29126054	     12.29556400	    -12.60340434	     -6.75025213	    -57.70370440	     21.55699879	     -0.19204933	      0.00000000	    -11.07415022	     13.01386148	      5.88870574	    -12.89493855	     24.99872527	      1.76459631	      0.00000000	    -32.54643721	     -4.13751606	     -7.48849635
      5.17500000	     11.84910155	      8.89998845	      6.38166714	      0.85926117	      0.75949276	     -0.29150761	     12.67497894	    -12.77479163	     -6.96908491	    -56.30587839	     21.81483519	      0.04521134	      0.00000000	    -12.28776113	     12.89695596	      5.91844495	    -12.06910106	     25.17302730	      2.47698470	      0.00000000	    -32.70229235	     -4.10743376	     -8.14948140
      5.18000000	     11.92423062	      9.08334374	      6.76667783	      0.86672661	      0.75958451	     -0.29173828	     13.04114352	    -12.99050509	     -7.19208210	    -54.83416299	     22.06119847	      0.24483399	      0.00000000	    -13.45601122	     12.80519286	      5.87818402	    -11.28420636	     25.30965568	      3.20738172	      0.00000000	    -32.84448811	     -4.11689001	     -8.84765562
      5.18500000	     11.99278142	      9.28567008	      7.16148528	      0.87418322	      0.75958276	     -0.29196692	     13.36794862	    -13.22591282	     -7.41239617	    -53.27923534	     22.28543250	      0.46513357	      0.00000000	    -14.60062859	     12.72139777	      5.80985693	    -10.54070463	     25.43851021	      3.96112538	      0.00000000	    -32.99032713	     -4.14070794	     -9.54766131
      5.19000000	     12.07476330	      9.47605419	      7.54062858	      0.88164931	      0.75951057	     -0.29215006	     13.63567550	    -13.44128401	     -7.63411331	    -51.62818349	     22.48757191	      0.73936374	      0.00000000	    -15.74185521	     12.61330551	      5.70430813	     -9.82736267	     25.58535063	      4.74591026	      0.00000000	    -33.15183085	     -4.16138210	    -10.22067465
      5.19500000	     12.14445804	      9.68145077	      7.92625402	      0.88909827	      0.75934349	     -0.29233683	     13.87087168	    -13.67250250	     -7.85007414	    -49.89564366	     22.67189387	      1.05852786	      0.00000000	    -16.84515802	     12.51429270	      5.58169442	     -9.16896510	     25.73278266	      5.52880895	      0.00000000	    -33.31143100	     -4.19181331	    -10.89079800
      5.20000000	     12.17868062	      9.92448918	      8.33266183	      0.89649738	      0.75906694	     -0.29251736	     14.10041671	    -13.94988009	     -8.07361425	    -48.09474987	     22.84072173	      1.41813796	      0.00000000	    -17.87499018	     12.44890967	      5.47173077	     -8.59375690	     25.86345883	      6.26570450	      0.00000000	    -33.45357095	     -4.25697221	    -11.60008064
      5.20500000	     12.21346788	     10.13756497	      8.72762897	      0.90391882	      0.75872795	     -0.29267698	     14.27479965	    -14.19121435	     -8.31192582	    -46.18902154	     23.00524019	      1.89230940	      0.00000000	    -18.88044311	     12.34703440	      5.35931659	     -8.06015378	     26.00517152	      7.00669929	      0.00000000	    -33.59216507	     -4.30057193	    -12.24848466
      5.21000000	     12.24090296	     10.34671699	      9.11731199	      0.91131964	      0.75831209	     -0.29282897	     14.41196961	    -14.42120361	     -8.53513444	    -44.20280928	     23.14406828	      2.46501803	      0.00000000	    -19.84535498	     12.23881366	      5.25463661	     -7.58762160	     26.17523003	      7.72921990	      0.00000000	    -33.73069970	     -4.33697593	    -12.86955191
      5.21500000	     12.25030001	     10.54999729	      9.50098317	      0.91870450	      0.75782030	     -0.29295314	     14.52174044	    -14.64010682	     -8.76230695	    -42.13553430	     23.26133102	      3.14339347	      0.00000000	    -20.75059609	     12.12460476	      5.16747495	     -7.19050457	     26.36107142	      8.41522803	      0.00000000	    -33.85519758	     -4.37856214	    -13.46233377
      5.22000000	     12.24441502	     10.74744915	      9.87849295	      0.92607200	      0.75726257	     -0.29306386	     14.59880620	    -14.84665187	     -8.98593502	    -39.98974457	     23.35270617	      3.94235582	      0.00000000	    -21.59727544	     12.00570346	      5.10581074	     -6.87302261	     26.56548880	      9.06160560	      0.00000000	    -33.96923536	     -4.41802353	    -14.02979736
      5.22500000	     12.20705769	     10.93712125	     10.25438238	      0.93343512	      0.75662822	     -0.29314114	     14.66126172	    -15.04104162	     -9.21893649	    -37.77653280	     23.41584353	      4.84990383	      0.00000000	    -22.37032855	     11.88016926	      5.07289217	     -6.62983468	     26.77403482	      9.64925943	      0.00000000	    -34.05482648	     -4.46328416	    -14.56882158
      5.23000000	     12.15456983	     11.12147383	     10.62693554	      0.94079413	      0.75593820	     -0.29320265	     14.68948784	    -15.22440010	     -9.46075901	    -35.50272520	     23.45403731	      5.88725187	      0.00000000	    -23.08699180	     11.74910761	      5.07281318	     -6.46302084	     26.99661079	     10.19675475	      0.00000000	    -34.12807861	     -4.51022802	    -15.07761967
      5.23500000	     12.07607094	     11.29212209	     10.99659002	      0.94815967	      0.75518921	     -0.29324757	     14.69737837	    -15.39065310	     -9.72149278	    -33.17884371	     23.45795578	      7.04583667	      0.00000000	    -23.73346073	     11.60694787	      5.10594160	     -6.37497039	     27.23373248	     10.69181076	      0.00000000	    -34.17349126	     -4.55265747	    -15.56139996
